<mxfile host="www.draw.io" modified="2020-02-12T23:18:48.876Z" agent="Mozilla/5.0 (Windows NT 10.0; Win64; x64) AppleWebKit/537.36 (KHTML, like Gecko) Chrome/79.0.3945.130 Safari/537.36" etag="n3_mQYZed4-o8n15RjKw" version="12.6.8" type="github">
  <diagram id="pj2551XqWWn_WSye79mF" name="Page-1">
    <mxGraphModel dx="1102" dy="614" grid="1" gridSize="10" guides="1" tooltips="1" connect="1" arrows="1" fold="1" page="1" pageScale="1" pageWidth="850" pageHeight="1100" math="0" shadow="0">
      <root>
        <mxCell id="0"/>
        <mxCell id="1" parent="0"/>
        <mxCell id="8wyC_EhF1583-gF4OUSd-1" value="Altis Backup&lt;br&gt;Storage" style="shape=dataStorage;whiteSpace=wrap;html=1;fillColor=#dae8fc;strokeColor=#6c8ebf;" parent="1" vertex="1">
          <mxGeometry x="665" y="120" width="100" height="80" as="geometry"/>
        </mxCell>
        <mxCell id="8wyC_EhF1583-gF4OUSd-2" value="Edenbridge &lt;br&gt;office server&lt;br&gt;storage" style="shape=dataStorage;whiteSpace=wrap;html=1;fillColor=#dae8fc;strokeColor=#6c8ebf;" parent="1" vertex="1">
          <mxGeometry x="340" y="360" width="100" height="80" as="geometry"/>
        </mxCell>
        <mxCell id="8wyC_EhF1583-gF4OUSd-3" value="A2 Hosting&lt;br&gt;Data Storage" style="shape=dataStorage;whiteSpace=wrap;html=1;fillColor=#dae8fc;strokeColor=#6c8ebf;" parent="1" vertex="1">
          <mxGeometry x="340" y="120" width="100" height="80" as="geometry"/>
        </mxCell>
        <mxCell id="8wyC_EhF1583-gF4OUSd-4" value="" style="endArrow=classic;html=1;strokeWidth=2;exitX=1;exitY=0.5;exitDx=0;exitDy=0;entryX=0;entryY=0.5;entryDx=0;entryDy=0;" parent="1" target="8wyC_EhF1583-gF4OUSd-3" edge="1">
          <mxGeometry width="50" height="50" relative="1" as="geometry">
            <mxPoint x="140" y="159.9999999999999" as="sourcePoint"/>
            <mxPoint x="270" y="130" as="targetPoint"/>
          </mxGeometry>
        </mxCell>
        <mxCell id="8wyC_EhF1583-gF4OUSd-5" value="" style="endArrow=classic;html=1;strokeWidth=2;exitX=0.5;exitY=0;exitDx=0;exitDy=0;" parent="1" source="8wyC_EhF1583-gF4OUSd-3" target="8wyC_EhF1583-gF4OUSd-15" edge="1">
          <mxGeometry width="50" height="50" relative="1" as="geometry">
            <mxPoint x="370" y="90" as="sourcePoint"/>
            <mxPoint x="100" y="119.99999999999989" as="targetPoint"/>
            <Array as="points">
              <mxPoint x="390" y="80"/>
              <mxPoint x="98" y="80"/>
            </Array>
          </mxGeometry>
        </mxCell>
        <mxCell id="8wyC_EhF1583-gF4OUSd-6" value="" style="endArrow=classic;html=1;strokeWidth=2;exitX=0.5;exitY=1;exitDx=0;exitDy=0;entryX=0.5;entryY=0;entryDx=0;entryDy=0;" parent="1" source="8wyC_EhF1583-gF4OUSd-3" target="8wyC_EhF1583-gF4OUSd-16" edge="1">
          <mxGeometry width="50" height="50" relative="1" as="geometry">
            <mxPoint x="320" y="290" as="sourcePoint"/>
            <mxPoint x="100" y="310" as="targetPoint"/>
            <Array as="points">
              <mxPoint x="390" y="280"/>
              <mxPoint x="95" y="280"/>
            </Array>
          </mxGeometry>
        </mxCell>
        <mxCell id="8wyC_EhF1583-gF4OUSd-7" value="" style="endArrow=classic;html=1;strokeWidth=2;fontColor=#000000;exitX=1;exitY=0.5;exitDx=0;exitDy=0;entryX=0;entryY=0.5;entryDx=0;entryDy=0;" parent="1" target="8wyC_EhF1583-gF4OUSd-2" edge="1">
          <mxGeometry width="50" height="50" relative="1" as="geometry">
            <mxPoint x="140" y="400" as="sourcePoint"/>
            <mxPoint x="270" y="380" as="targetPoint"/>
          </mxGeometry>
        </mxCell>
        <mxCell id="8wyC_EhF1583-gF4OUSd-8" value="" style="endArrow=classic;html=1;strokeWidth=2;fontColor=#000000;exitX=0.904;exitY=0.508;exitDx=0;exitDy=0;entryX=0;entryY=0.5;entryDx=0;entryDy=0;exitPerimeter=0;" parent="1" source="8wyC_EhF1583-gF4OUSd-2" target="8wyC_EhF1583-gF4OUSd-17" edge="1">
          <mxGeometry width="50" height="50" relative="1" as="geometry">
            <mxPoint x="370" y="530" as="sourcePoint"/>
            <mxPoint x="100" y="560" as="targetPoint"/>
            <Array as="points"/>
          </mxGeometry>
        </mxCell>
        <mxCell id="8wyC_EhF1583-gF4OUSd-9" value="Data Dumped Into a File Containing SQL Queries" style="text;html=1;strokeColor=none;fillColor=none;align=center;verticalAlign=middle;whiteSpace=wrap;rounded=0;fontColor=#000000;" parent="1" vertex="1">
          <mxGeometry x="140" y="50" width="200" height="20" as="geometry"/>
        </mxCell>
        <mxCell id="8wyC_EhF1583-gF4OUSd-10" value="The Mysqldump file to be Stored in the Host&#39;s File System" style="text;html=1;strokeColor=none;fillColor=none;align=center;verticalAlign=middle;whiteSpace=wrap;rounded=0;fontColor=#000000;" parent="1" vertex="1">
          <mxGeometry x="170" y="122" width="160" height="20" as="geometry"/>
        </mxCell>
        <mxCell id="8wyC_EhF1583-gF4OUSd-11" value="Retrieved Mysqldump File to Be Sent with SFTP" style="text;html=1;strokeColor=none;fillColor=none;align=center;verticalAlign=middle;whiteSpace=wrap;rounded=0;fontColor=#000000;" parent="1" vertex="1">
          <mxGeometry x="125" y="240" width="230" height="30" as="geometry"/>
        </mxCell>
        <mxCell id="8wyC_EhF1583-gF4OUSd-12" value="Mysqldump File Sent to Edenbridge&#39;s Office Server with SFTP" style="text;html=1;strokeColor=none;fillColor=none;align=center;verticalAlign=middle;whiteSpace=wrap;rounded=0;fontColor=#000000;" parent="1" vertex="1">
          <mxGeometry x="160" y="360" width="170" height="20" as="geometry"/>
        </mxCell>
        <mxCell id="8wyC_EhF1583-gF4OUSd-13" value="Data from Edenbridge&#39;s Office Server" style="text;html=1;strokeColor=none;fillColor=none;align=center;verticalAlign=middle;whiteSpace=wrap;rounded=0;fontColor=#000000;" parent="1" vertex="1">
          <mxGeometry x="430" y="373" width="230" height="20" as="geometry"/>
        </mxCell>
        <mxCell id="8wyC_EhF1583-gF4OUSd-14" value="Data to be Stored by Altis" style="text;html=1;strokeColor=none;fillColor=none;align=center;verticalAlign=middle;whiteSpace=wrap;rounded=0;fontColor=#000000;" parent="1" vertex="1">
          <mxGeometry x="620" y="270" width="90" height="20" as="geometry"/>
        </mxCell>
        <mxCell id="8wyC_EhF1583-gF4OUSd-15" value="&lt;p style=&quot;margin: 0px ; margin-top: 4px ; text-align: center ; text-decoration: underline&quot;&gt;&lt;strong&gt;20.1&lt;br&gt;&lt;/strong&gt;&lt;/p&gt;&lt;hr&gt;&lt;p style=&quot;margin: 0px ; margin-left: 8px&quot;&gt;&lt;span style=&quot;font-weight: 400 ; white-space: normal&quot;&gt;Cron Event Mysqldump PHP Script&lt;/span&gt;&lt;br&gt;&lt;/p&gt;&lt;p style=&quot;margin: 0px ; margin-left: 8px&quot;&gt;&lt;span style=&quot;font-weight: 400 ; white-space: normal&quot;&gt;PHP/SQL&lt;/span&gt;&lt;/p&gt;&lt;p style=&quot;margin: 0px ; margin-left: 8px&quot;&gt;&lt;br&gt;&lt;/p&gt;" style="verticalAlign=middle;align=center;overflow=fill;fontSize=12;fontFamily=Helvetica;html=1;rounded=1;fontStyle=1;strokeWidth=3;fillColor=#f8cecc;strokeColor=#b85450;" parent="1" vertex="1">
          <mxGeometry x="45" y="120" width="110" height="90" as="geometry"/>
        </mxCell>
        <mxCell id="8wyC_EhF1583-gF4OUSd-16" value="&lt;p style=&quot;margin: 0px ; margin-top: 4px ; text-align: center ; text-decoration: underline&quot;&gt;&lt;strong&gt;20.2&lt;br&gt;&lt;/strong&gt;&lt;/p&gt;&lt;hr&gt;&lt;p style=&quot;margin: 0px ; margin-left: 8px&quot;&gt;&lt;span style=&quot;font-weight: 400 ; white-space: normal&quot;&gt;Cron Event&lt;/span&gt;&lt;br style=&quot;font-weight: 400 ; white-space: normal&quot;&gt;&lt;span style=&quot;font-weight: 400 ; white-space: normal&quot;&gt;SFTP Backup File to Edenbridge&#39;s Server&lt;/span&gt;&lt;br&gt;&lt;/p&gt;" style="verticalAlign=middle;align=center;overflow=fill;fontSize=12;fontFamily=Helvetica;html=1;rounded=1;fontStyle=1;strokeWidth=3;fillColor=#f8cecc;strokeColor=#b85450;" parent="1" vertex="1">
          <mxGeometry x="40" y="350" width="110" height="90" as="geometry"/>
        </mxCell>
        <mxCell id="8wyC_EhF1583-gF4OUSd-17" value="&lt;p style=&quot;margin: 0px ; margin-top: 4px ; text-align: center ; text-decoration: underline&quot;&gt;&lt;strong&gt;20.3&lt;br&gt;&lt;/strong&gt;&lt;/p&gt;&lt;hr&gt;&lt;p style=&quot;margin: 0px ; margin-left: 8px&quot;&gt;&lt;span style=&quot;font-weight: 400 ; white-space: normal&quot;&gt;Altis Retrieves the Backup Data&lt;/span&gt;&lt;br&gt;&lt;/p&gt;" style="verticalAlign=middle;align=center;overflow=fill;fontSize=12;fontFamily=Helvetica;html=1;rounded=1;fontStyle=1;strokeWidth=3;fillColor=#f8cecc;strokeColor=#b85450;" parent="1" vertex="1">
          <mxGeometry x="660" y="355" width="110" height="90" as="geometry"/>
        </mxCell>
        <mxCell id="8wyC_EhF1583-gF4OUSd-18" value="" style="endArrow=classic;html=1;strokeWidth=2;fontColor=#000000;exitX=0.5;exitY=0;exitDx=0;exitDy=0;entryX=0.5;entryY=1;entryDx=0;entryDy=0;" parent="1" source="8wyC_EhF1583-gF4OUSd-17" target="8wyC_EhF1583-gF4OUSd-1" edge="1">
          <mxGeometry width="50" height="50" relative="1" as="geometry">
            <mxPoint x="605" y="300" as="sourcePoint"/>
            <mxPoint x="825" y="300" as="targetPoint"/>
            <Array as="points"/>
          </mxGeometry>
        </mxCell>
      </root>
    </mxGraphModel>
  </diagram>
</mxfile>
